<?xml version="1.0" encoding="utf-8"?>
<!-- Generator: Adobe Illustrator 15.1.0, SVG Export Plug-In . SVG Version: 6.00 Build 0)  -->
<!DOCTYPE svg PUBLIC "-//W3C//DTD SVG 1.1//EN" "http://www.w3.org/Graphics/SVG/1.1/DTD/svg11.dtd">
<svg version="1.1" id="Layer_1" xmlns="http://www.w3.org/2000/svg" xmlns:xlink="http://www.w3.org/1999/xlink" x="0px" y="0px"
	 width="2835px" height="1113.189px" viewBox="0 0 2835 1113.189" enable-background="new 0 0 2835 1113.189" xml:space="preserve">
<g>
	<g>
		<path fill="#777979" d="M2120.366,867.334c-0.014,0.004,0.181-0.467,0.511-0.513c1.551-0.195,5.246,0.258,7.164,1.024
			c0.182,0.073,0.908-0.141,1.024,0c0.336,0.413,1.704,0.552,2.56,1.024c0.214,0.118,0.329,0.939,0.51,1.022
			c0.244,0.109,0.819-0.16,1.024,0c0.456,0.361,0.61,1.123,1.022,1.535c0.399,0.399,1.187,0.595,1.535,1.023
			c0.145,0.178-0.171,0.883,0,1.025c0.6,0.488,0.929,0.582,1.535,1.534c0.32,0.502,0.329,0.804,0.511,1.535
			c0.124,0.48,0.279,1.282,0.515,2.046c0.604,2.002,0.769,5.657,0,8.188c-0.021,0.071-0.427,0.167-0.515,0.512
			c-0.241,0.976-0.431,1.027-1.022,2.048c-0.2,0.347-0.228,1.146-0.513,1.535c-0.338,0.459-1.127,0.616-1.533,1.022
			c-0.392,0.393-0.599,1.199-1.023,1.535c-0.18,0.142-0.885-0.171-1.022,0c-0.141,0.171-0.345,0.909-0.514,1.023
			c-0.186,0.125-0.888-0.165-1.023,0c-0.568,0.696-0.455,0.755-1.535,1.023c-0.452,0.112-0.877,0.348-1.535,0.512
			c-2.242,0.561-4.904,1.077-8.187,0.513c-1.228-0.211-2.727-0.196-3.585-0.513c-0.199-0.074,0.015-0.484-0.509-0.512
			c-0.779-0.04-1.775-0.963-2.56-1.536c-1.387-1.009-2.411-1.975-3.583-3.581c-0.282-0.391-0.792-0.693-1.021-1.022
			c-0.129-0.184,0.166-0.888,0-1.024c-0.63-0.513-0.602-1.383-1.022-3.072c-0.514-2.048-0.788-5.603,0-8.186
			c0.019-0.069,0.422-0.168,0.511-0.511c0.243-0.977,0.431-1.026,1.024-2.047c0.576-0.998,1.375-2.592,2.559-3.581
			c0.662-0.558,1.856-1.128,2.558-1.536c0.941-0.549,1.673-1.225,2.558-1.536C2117.904,867.453,2119.027,867.536,2120.366,867.334z
			 M2111.668,888.314c0.028,0.598,0.297,0.224,0.51,0.513c2.142,2.886,5.58,5.385,9.724,5.628c4.843,0.286,8.721-1.926,10.747-4.094
			c0.566-0.608,1.51-1.586,1.533-2.047c0.041-0.758,0.797-1.647,1.024-2.558c0.084-0.337,0.493-0.449,0.511-0.515
			c0.735-2.481,0.406-3.799,0-5.627c-0.212-0.955-0.269-1.978-0.511-2.559c-0.097-0.229-0.859-0.759-1.024-1.023
			c-0.664-1.067-0.916-1.939-1.533-2.557c-1.185-1.183-2.241-1.444-3.583-2.049c-0.193-0.085-0.273-0.92-0.513-1.023
			c-0.282-0.121-0.721,0.074-1.022,0c-0.315-0.078-0.482-0.504-0.513-0.512c-2.541-0.678-4.959-0.277-6.141,0
			c-1.38,0.326-2.09,0.396-2.558,0.512c-0.634,0.159-0.683,0.093-1.025,0.514c-0.135,0.166-0.838-0.129-1.024,0
			c-0.387,0.27-0.711,1.151-1.021,1.533c-0.138,0.167-0.839-0.129-1.022,0c-0.211,0.148-0.815,0.809-1.024,1.025
			c-1.275,1.312-1.913,3.191-3.069,4.604c0,2.559,0,5.117,0,7.676C2110.781,886.351,2111.642,887.838,2111.668,888.314z"/>
		<path fill="#777979" d="M2116.783,873.477c4.467,0.14,9.913-0.703,12.282,1.534c0.286,1.111,1.222,4.188,0,5.116
			c-0.347,1.188-1.701,1.37-2.048,2.559c0.585,2.484,2.307,3.836,2.559,6.653c-1.053-0.312-3.555,0.823-3.07-1.024
			c-2.223-1.529-1.002-6.504-5.629-5.629c-2.34,0.388,0.063,5.522-1.535,6.653c-0.511,0-1.022,0-1.535,0
			c-1.734,0.195-0.971-2.029-1.023-3.071c-0.15-3.023,0.112-7.761,0-11.257C2116.783,874.499,2116.783,873.985,2116.783,873.477z
			 M2120.366,875.521c-0.783,0.933-0.783,4.186,0,5.118c2.922,0.022,5.834,0.035,6.14-2.559
			C2126.243,875.442,2123.395,875.394,2120.366,875.521z"/>
	</g>
</g>
<path fill="#777979" d="M1236.366,534.182c42.58,121.118,85.463,241.941,127.997,363.095c-34.901,0-69.781,0-104.661,0
	c-0.561-2.401-17.877-51.621-18.059-52.333l-0.384-0.363c-0.454-1.237-0.2-2.801-1.514-3.585c-45.409,0-90.836,0-136.257,0
	c-6.479,18.81-13.066,37.512-19.576,56.281c-34.762,0-69.507,0-104.274,0c0.222-1.989,133.979-359.285,135.518-364.167
	c40.152,0,80.308,0,120.457,0C1236.142,533.205,1236.045,533.898,1236.366,534.182z M1174.256,640.28l-0.366,0.356
	c-0.763,0.507-13.71,42.164-13.935,43.014c-1.09,4.149-26.621,84.234-26.721,85.661c27.093,0,54.207,0,81.301,0
	C1214.119,765.71,1174.2,640.833,1174.256,640.28z"/>
<path fill="#777979" d="M1408.302,528.833c35.001,0,70.004,0,105.021,0c0.776-0.237,0.511,0.411,0.742,0.728
	c0,0,124.243,223.699,125.353,224.858c0.682-0.257,0.363-2.079,0.374-3.295c0.496-35.709,0-184.772,0-222.292
	c31.62,0,63.239,0,94.861,0c0,123.327,0,246.676,0,370.004c-31.503,0-57.403-0.107-90.138-0.107c-2.458,0-13.739-0.285-13.739-0.285
	l-127.249-197.047l-0.748-0.72c0,66.051,0,132.109,0,198.16c-31.621,0-63.241,0-94.859,0c0-122.972,0-245.937,0-368.914
	C1407.89,529.403,1407.852,528.886,1408.302,528.833z"/>
<path fill="#777979" d="M696.091,364.624c1.08,1.695,131.079,382.304,132.228,389.966c1.837,0.089,132.504-367.406,139.998-385.273
	c1.025-2.448,1043.404-0.826,1136.312-1.45c0,28.767,0,63.629,0,92.397c-186.981-0.455-1035.516-2.282-1046.238-0.715
	c-1.524,0.223-168.436,442.113-169.436,439.619c-0.61-1.526-119.869,0.394-125.062,0.089c-1.9-5.421-186.166-534.727-186.5-534.726
	C616.722,364.53,694.938,362.826,696.091,364.624z"/>
<path fill="#777979" d="M2102.477,626.885l-95.246-1.14c0,0-8.385-33.607-65.055-33.607c0,0-38.081,1.76-52.741,21.515
	c0,0-10.039,16.36,1.173,29.864c0,0,4.812,5.608,19.819,10.2c15.007,4.591,82.838,19.188,82.838,19.188s54.771,12.94,69.158,21.627
	c14.39,8.686,34.241,21.703,43.935,43.828c0,0,39.292,85.403-45.486,141.345c0,0-35.837,26.749-108.821,25.46
	c0,0-156.128,5.04-161.781-117.046h94.931c0,0,1.381,40.151,67.604,38.673c0,0,77.146,3.437,68.034-43.456
	c0,0-2.784-13.328-23.336-18.518l-77.22-18.07c0,0-59.877-11.277-93.049-34.833c0,0-33.172-22.697-33.172-75.502
	c0,0-5.674-123.007,147.854-121.394C1941.914,515.021,2086.759,510.886,2102.477,626.885z"/>
</svg>
